<svg width="1149" height="749" viewBox="0 0 1149 749" fill="none" xmlns="http://www.w3.org/2000/svg">
<path d="M727.566 726.452L463.965 210.738L498.363 558.468L727.566 726.452Z" fill="white" fill-opacity="0.42"/>
<path d="M130.219 730.706L727.566 726.452L498.363 558.468L130.219 730.706Z" fill="white" fill-opacity="0.32"/>
<path d="M463.965 210.738L130.219 730.706L498.363 558.468L463.965 210.738Z" fill="white" fill-opacity="0.25"/>
<path d="M130.219 730.706L463.965 210.738M130.219 730.706L727.566 726.452M130.219 730.706L498.363 558.468M463.965 210.738L727.566 726.452M463.965 210.738L498.363 558.468M727.566 726.452L498.363 558.468" stroke="white"/>
<g filter="url(#filter0_d_28_23)">
<path d="M23.0594 570.498L307.472 456.706M307.372 456.706L596.662 561.726L459.045 654.85L307.472 456.706Z" stroke="white" stroke-width="7" stroke-linecap="round" shape-rendering="crispEdges"/>
</g>
<path d="M604.3 560.783L840 -80.5004L1743.5 -80.5L1743.5 142.5L604.3 560.783Z" fill="url(#paint0_linear_28_23)"/>
<path d="M131.234 729.676L465.097 210.73L726.536 725.436L131.234 729.676Z" id="prisma-front-side" fill-opacity="0.64" stroke="white"/>
<text id="menu-text" x="40%" y="95%" text-anchor="middle" fill="white" font-family="Font Over" font-size="50" opacity="0">TO MENU</text>
<defs>
<filter id="filter0_d_28_23" x="0.0584297" y="433.461" width="623.749" height="245.639" filterUnits="userSpaceOnUse" color-interpolation-filters="sRGB">
<feFlood flood-opacity="0" result="BackgroundImageFix"/>
<feColorMatrix in="SourceAlpha" type="matrix" values="0 0 0 0 0 0 0 0 0 0 0 0 0 0 0 0 0 0 127 0" result="hardAlpha"/>
<feOffset/>
<feGaussianBlur stdDeviation="9.75"/>
<feComposite in2="hardAlpha" operator="out"/>
<feColorMatrix type="matrix" values="0 0 0 0 1 0 0 0 0 1 0 0 0 0 1 0 0 0 1 0"/>
<feBlend mode="normal" in2="BackgroundImageFix" result="effect1_dropShadow_28_23"/>
<feBlend mode="normal" in="SourceGraphic" in2="effect1_dropShadow_28_23" result="shape"/>
</filter>
<linearGradient id="paint0_linear_28_23" x1="848" y1="-10.0002" x2="1135" y2="311.5" gradientUnits="userSpaceOnUse">
<stop stop-color="#FF0000"/>
<stop offset="0.175" stop-color="#ED9126"/>
<stop offset="0.365" stop-color="#FFF734"/>
<stop offset="0.54" stop-color="#54FB39"/>
<stop offset="0.71" stop-color="#22EEFB"/>
<stop offset="0.835" stop-color="#2B3EE6"/>
<stop offset="1" stop-color="#D41AF2"/>
</linearGradient>
</defs>
</svg>
